<?xml version="1.0" encoding="utf-8"?>
<!-- Generator: Adobe Illustrator 24.0.0, SVG Export Plug-In . SVG Version: 6.00 Build 0)  -->
<svg version="1.1" id="Layer_1" xmlns="http://www.w3.org/2000/svg" xmlns:xlink="http://www.w3.org/1999/xlink" x="0px" y="0px"
	 viewBox="0 0 130.3 127.6" style="enable-background:new 0 0 130.3 127.6;" xml:space="preserve">
<style type="text/css">
	.st0{fill:none;stroke:#C0C1C3;stroke-width:0.7425;stroke-linecap:square;}
	.st1{fill:none;stroke:#B3B4B7;stroke-width:0.7425;}
	.st2{fill:none;stroke:#B3B4B7;stroke-width:0.7425;stroke-linecap:square;}
	.st3{fill:none;stroke:#BEBFC1;stroke-width:0.3713;}
	.st4{fill:#BEBFC1;}
	.st5{fill:none;}
	.st6{fill:none;stroke:#282526;stroke-width:1.2;}
	.st7{fill:#282526;}
	.st8{fill:none;stroke:#A1A3A6;stroke-width:0.3713;}
	.st9{fill:#A1A3A6;}
	.st10{fill:#FFFFFF;}
	.st11{fill:none;stroke:#282526;stroke-width:0.7425;}
	.st12{fill:none;stroke:#282526;stroke-width:0.7425;stroke-linecap:square;}
	.st13{fill:none;stroke:#282526;stroke-width:0.3713;}
	.st14{fill:none;stroke:#282526;stroke-width:0.3713;stroke-linecap:square;}
	.st15{fill:none;stroke:#4C4C4E;stroke-width:1.125;stroke-linecap:square;}
	.st16{fill:#4C4C4E;}
	.st17{fill:#231F20;}
	.st18{font-family:'HelveticaNeue';}
	.st19{font-size:10px;}
	.st20{fill:none;stroke:#000000;stroke-width:0.3713;}
</style>
<g>
	<path class="st0" d="M92.4,57.2l16.4,5.3 M100.4,46.6l-8,10.6"/>
	<path class="st1" d="M106.4,34.3c0,3.4-2.8,6.2-6.2,6.2S94,37.7,94,34.3s2.8-6.2,6.2-6.2S106.4,30.9,106.4,34.3z"/>
	<path class="st2" d="M104.9,92.4l-5.5,25.2 M104.9,92.6l-4.3-24.7 M100.2,40.5l0.5,27.2"/>
	<path class="st3" d="M102.8,55.3h-4.5 M100.6,53v4.5 M102.6,55.3c0,1.1-1,2-2.1,2s-2-1-2-2.1s1-2,2.1-2
		C101.7,53.3,102.6,54.2,102.6,55.3z"/>
	<path class="st4" d="M101,55.7c0,0.4,0,0.8,0,1.2c0.4-0.1,1.2-0.7,1.1-1.2C101.8,55.7,101.4,55.7,101,55.7"/>
	<path class="st4" d="M100.6,55.6c0,0.4,0,0.8,0,1.2c0,0.2,0.1,0.4,0.4,0.3c0.7-0.1,1.5-0.8,1.4-1.5c0-0.1-0.1-0.2-0.3-0.2
		c-0.3,0-0.6,0-0.9-0.1c-0.4-0.1-0.6,0.5-0.2,0.6c0.3,0.1,0.7,0.1,1,0.1c-0.1-0.1-0.2-0.2-0.3-0.2c0.1,0.4-0.5,0.8-0.9,0.8
		c0.1,0.1,0.2,0.2,0.4,0.3c0-0.4,0-0.8,0-1.2C101.3,55.3,100.6,55.3,100.6,55.6"/>
	<path class="st4" d="M100.1,53.6c-0.7-0.2-1.2,0.5-1.1,1.2c0.3,0,0.7,0,1,0c0-0.3,0-0.6,0-0.9"/>
	<path class="st4" d="M100.2,53.3c-0.9-0.2-1.5,0.7-1.5,1.6c0,0.1,0.1,0.2,0.3,0.2c0.4,0,0.8,0,1.1,0c0.1,0,0.2-0.1,0.2-0.3
		c0-0.3,0-0.6,0-0.9c0-0.4-0.6-0.5-0.6-0.1c0,0.3,0,0.6,0,0.9c0.1-0.1,0.2-0.2,0.2-0.3c-0.3,0-0.6,0-1,0c0.1,0.1,0.2,0.2,0.3,0.2
		c0-0.5,0.3-0.9,0.8-0.8C100.5,54,100.6,53.4,100.2,53.3"/>
	<line class="st5" x1="92.6" y1="125.8" x2="111.3" y2="125.8"/>
	<g>
		<g>
			<line class="st6" x1="92.6" y1="125.8" x2="109.1" y2="125.8"/>
			<g>
				<path class="st7" d="M111.3,125.8c-1,0.4-2.4,1.1-3.2,1.8l0.6-1.8l-0.6-1.8C109,124.8,110.3,125.4,111.3,125.8z"/>
			</g>
		</g>
	</g>
	<path d="M103.8,109.3c0.2,3.5-0.1,6.2-0.8,6.2c-0.7-0.1-1.4-3-1.6-6.5c-0.2-3.5,0.1-6.2,0.8-6.2
		C102.9,102.8,103.6,105.8,103.8,109.3z"/>
	<line class="st8" x1="101.4" y1="97.9" x2="102.2" y2="104.1"/>
	<path class="st9" d="M99,102.8c-0.2,4.4-0.9,7.9-1.6,7.9c-0.7,0-1.1-3.6-0.9-7.9c0.2-4.3,0.9-7.9,1.6-7.9
		C98.8,94.9,99.2,98.4,99,102.8"/>
	<path class="st10" d="M85.1,33.4c0.8-3.3,4.1-5.4,7.4-4.6c3.3,0.8,5.4,4.1,4.6,7.4c-0.8,3.3-4.1,5.4-7.4,4.6
		C86.4,40.1,84.3,36.7,85.1,33.4"/>
	<path class="st11" d="M85.1,33.4c0.8-3.3,4.1-5.4,7.4-4.6c3.3,0.8,5.4,4.1,4.6,7.4c-0.8,3.3-4.1,5.4-7.4,4.6
		C86.4,40.1,84.3,36.7,85.1,33.4z"/>
	<path class="st12" d="M83.9,57.9l17,2.3 M89.9,46.1l-6,11.8 M101.9,92.1l-2.6,25.6 M93.3,67.6l8.5,24.1 M89.2,41l4,26.1"/>
	<path class="st13" d="M95.4,38.5c-1.1,0.3-2.1-0.1-2.3-0.9 M93.9,33.8c0.7-0.2,1.4,0.2,1.6,0.9 M94.9,32.4c0.2,0.6-0.3,1.2-1,1.4"
		/>
	<path class="st7" d="M90.4,36.3C90.4,36.3,90.3,36.3,90.4,36.3c-0.1-0.1-0.1-0.1-0.2-0.1l-0.1-0.1L90,36l-0.1-0.1
		c0,0,0-0.1-0.1-0.1v-0.1c0-0.1,0-0.1,0-0.2s0-0.1,0-0.2v-0.1c0-0.1,0-0.1,0.1-0.2c0.1-0.1,0-0.1,0-0.1l0,0c0,0,0.2,0.1,0.5,0.3
		c0.3,0.2,0.5,0.3,0.5,0.3s-0.1,0.2-0.3,0.5C90.5,36.1,90.4,36.3,90.4,36.3"/>
	<path class="st13" d="M90.4,36.3C90.4,36.3,90.3,36.3,90.4,36.3c-0.1-0.1-0.1-0.1-0.2-0.1l-0.1-0.1L90,36l-0.1-0.1
		c0,0,0-0.1-0.1-0.1v-0.1c0-0.1,0-0.1,0-0.2s0-0.1,0-0.2v-0.1c0-0.1,0-0.1,0.1-0.2c0.1-0.1,0-0.1,0-0.1l0,0c0,0,0.2,0.1,0.5,0.3
		c0.3,0.2,0.5,0.3,0.5,0.3s-0.1,0.2-0.3,0.5C90.5,36.1,90.4,36.3,90.4,36.3z"/>
	<line class="st12" x1="95.4" y1="118" x2="108.1" y2="118"/>
	<path class="st8" d="M103.3,117.6l-0.2-2"/>
	<path class="st13" d="M97.2,34.3c0.3,0,0.5,1.1,0.5,2.4"/>
	<line class="st14" x1="97.7" y1="36.5" x2="97.1" y2="36.5"/>
	<line class="st15" x1="87.8" y1="121.2" x2="118.5" y2="121.2"/>
	<path class="st9" d="M93.3,57c-0.5-0.7-1.3-1.1-2.2-1.2"/>
	<path class="st13" d="M93.3,55h-4.5 M91.1,52.8v4.5 M93.1,55.1c0,1.1-1,2-2.1,2s-2-1-2-2.1s1-2,2.1-2C92.3,53,93.2,53.9,93.1,55.1z
		"/>
	<path class="st7" d="M91.5,55.4c0,0.4,0,0.8,0,1.2c0.4-0.1,1.2-0.7,1.1-1.2C92.3,55.4,91.9,55.4,91.5,55.4"/>
	<path class="st16" d="M91.2,55.4c0,0.4,0,0.8,0,1.2c0,0.2,0.1,0.4,0.4,0.3c0.7-0.1,1.5-0.8,1.4-1.5c0-0.1-0.1-0.2-0.3-0.2
		c-0.3,0-0.6,0-0.9-0.1c-0.4-0.1-0.6,0.5-0.2,0.6c0.3,0.1,0.7,0.1,1,0.1c-0.1-0.1-0.2-0.2-0.3-0.2c0.1,0.4-0.5,0.8-0.9,0.8
		c0.1,0.1,0.2,0.2,0.4,0.3c0-0.4,0-0.8,0-1.2C91.8,55,91.2,55,91.2,55.4"/>
	<path class="st7" d="M90.7,53.4c-0.7-0.2-1.2,0.5-1.1,1.2c0.3,0,0.7,0,1,0c0-0.3,0-0.6,0-0.9"/>
	<path class="st16" d="M90.7,53.1c-0.9-0.2-1.6,0.7-1.5,1.6c0,0.1,0.1,0.2,0.3,0.2c0.4,0,0.7,0,1.1,0c0.1,0,0.2-0.2,0.2-0.3
		c0-0.3,0-0.6,0-0.9c0-0.4-0.6-0.5-0.6-0.1c0,0.3,0,0.6,0,0.9c0.1-0.1,0.2-0.2,0.2-0.3c-0.3,0-0.6,0-0.9,0c0.1,0.1,0.2,0.2,0.3,0.2
		c-0.1-0.5,0.3-0.9,0.8-0.9C91,53.7,91.1,53.1,90.7,53.1"/>
	<text transform="matrix(1 0 0 1 107.9228 108.0261)" class="st17 st18 st19">TA</text>
	<text transform="matrix(1 0 0 1 75.7143 102.6931)" class="st17 st18 st19">MG</text>
	<text transform="matrix(1 0 0 1 38.0283 108.0261)" class="st17 st18 st19">TA</text>
	<text transform="matrix(1 0 0 1 5.8198 102.6931)" class="st17 st18 st19">MG</text>
	<path class="st8" d="M97.4,110.7l-0.2,7l0.9-22.8c0,0-0.4-3,2.5-4.3"/>
	<path d="M99,102.6c-0.2,4.4-0.9,7.9-1.6,7.9c-0.7,0-1.1-3.6-0.9-7.9c0.2-4.3,0.9-7.9,1.6-7.9S99.2,98.3,99,102.6"/>
	<path class="st20" d="M97.2,117.6l0.9-22.9c0,0-0.4-3,2.5-4.3"/>
	<line class="st20" x1="97.4" y1="110.6" x2="97.2" y2="117.6"/>
	<line class="st20" x1="101.4" y1="98" x2="102.2" y2="104.2"/>
	<line class="st20" x1="103.3" y1="117.7" x2="103.1" y2="114.1"/>
</g>
<g>
	<path class="st0" d="M17.8,57.2l16.4,5.3 M25.8,46.6l-8,10.6"/>
	<path class="st1" d="M31.7,34.3c0,3.4-2.8,6.2-6.2,6.2s-6.2-2.8-6.2-6.2s2.8-6.2,6.2-6.2C29,28.1,31.7,30.9,31.7,34.3z"/>
	<path class="st2" d="M30.3,92.4l-5.6,25.2 M30.3,92.6L26,67.9 M25.6,40.5l0.5,27.2"/>
	<path class="st3" d="M28.2,55.3h-4.5 M25.9,53v4.5 M28,55.3c0,1.1-1,2-2.1,2s-2-1-2-2.1s1-2,2.1-2C27.1,53.3,28,54.2,28,55.3z"/>
	<path class="st4" d="M26.3,55.7c0,0.4,0,0.8,0,1.2c0.4-0.1,1.2-0.7,1.1-1.2C27.1,55.7,26.7,55.7,26.3,55.7"/>
	<path class="st4" d="M26.1,55.6c0,0.4,0,0.8,0,1.2c0,0.2,0.1,0.4,0.4,0.3c0.7-0.1,1.5-0.8,1.4-1.5c0-0.1-0.1-0.2-0.3-0.2
		c-0.3,0-0.6,0-0.9-0.1c-0.4-0.1-0.6,0.5-0.2,0.6c0.3,0.1,0.7,0.1,1,0.1c-0.1-0.1-0.2-0.2-0.3-0.2c0.1,0.4-0.6,0.8-0.9,0.8
		c0.1,0.1,0.2,0.2,0.4,0.3c0-0.4,0-0.8,0-1.2C26.7,55.3,26.1,55.3,26.1,55.6"/>
	<path class="st4" d="M25.5,53.6c-0.7-0.2-1.2,0.5-1.1,1.2c0.3,0,0.7,0,1,0c0-0.3,0-0.6,0-0.9"/>
	<path class="st4" d="M25.6,53.3c-0.9-0.2-1.5,0.7-1.5,1.6c0,0.1,0.1,0.2,0.3,0.2c0.4,0,0.8,0,1.1,0c0.1,0,0.2-0.1,0.2-0.3
		c0-0.3,0-0.6,0-0.9c0-0.4-0.6-0.5-0.6-0.1c0,0.3,0,0.6,0,0.9c0.1-0.1,0.2-0.2,0.2-0.3c-0.3,0-0.6,0-1,0c0.1,0.1,0.2,0.2,0.3,0.2
		c-0.1-0.5,0.3-0.9,0.8-0.8C25.9,54,26,53.4,25.6,53.3"/>
	<path class="st13" d="M38.1,55h-4.5 M35.8,52.8v4.5 M37.9,55.1c0,1.1-1,2-2.1,2s-2-1-2-2.1s1-2,2.1-2S37.9,53.9,37.9,55.1z"/>
	<path class="st7" d="M36.2,55.4c0,0.4,0,0.8,0,1.2c0.4-0.1,1.2-0.7,1.1-1.2C37,55.4,36.6,55.4,36.2,55.4"/>
	<path class="st16" d="M35.9,55.4c0,0.4,0,0.8,0,1.2c0,0.2,0.1,0.4,0.4,0.3c0.7-0.1,1.5-0.8,1.4-1.5c0-0.1-0.1-0.2-0.3-0.2
		c-0.3,0-0.6,0-0.9-0.1c-0.4-0.1-0.6,0.5-0.2,0.6c0.3,0.1,0.7,0.1,1,0.1c-0.1-0.1-0.2-0.2-0.3-0.2c0.1,0.4-0.6,0.8-0.9,0.8
		c0.1,0.1,0.2,0.2,0.4,0.3c0-0.4,0-0.8,0-1.2C36.6,55,35.9,55,35.9,55.4"/>
	<path class="st7" d="M35.4,53.4c-0.7-0.2-1.2,0.5-1.1,1.2c0.3,0,0.7,0,1,0c0-0.3,0-0.6,0-0.9"/>
	<path class="st16" d="M35.5,53.1c-0.9-0.2-1.5,0.7-1.5,1.6c0,0.1,0.1,0.2,0.3,0.2c0.4,0,0.7,0,1.1,0c0.1,0,0.2-0.2,0.2-0.3
		c0-0.3,0-0.6,0-0.9c0-0.4-0.6-0.5-0.6-0.1c0,0.3,0,0.6,0,0.9c0.1-0.1,0.2-0.2,0.2-0.3c-0.3,0-0.6,0-1,0c0.1,0.1,0.2,0.2,0.3,0.2
		c-0.1-0.5,0.3-0.9,0.8-0.9C35.8,53.7,35.8,53.1,35.5,53.1"/>
	<line class="st5" x1="18" y1="125.8" x2="36.7" y2="125.8"/>
	<g>
		<g>
			<line class="st6" x1="20.2" y1="125.8" x2="36.7" y2="125.8"/>
			<g>
				<path class="st7" d="M18,125.8c1.1,0.4,2.4,1.1,3.2,1.8l-0.6-1.8l0.6-1.8C20.3,124.8,19,125.4,18,125.8z"/>
			</g>
		</g>
	</g>
	<path d="M31.3,110.7c-0.8,3.4-2,5.9-2.6,5.6s-0.4-3.3,0.4-6.7c0.8-3.4,2-5.9,2.6-5.6C32.3,104.3,32.1,107.3,31.3,110.7z"/>
	<line class="st8" x1="32.4" y1="99.1" x2="31.3" y2="105.3"/>
	<path class="st9" d="M28.6,103.1c-1.5,4.1-3.3,7.3-3.9,7.1c-0.7-0.2,0.1-3.7,1.6-7.8c1.5-4.1,3.3-7.3,3.9-7.1
		C30.8,95.4,30.1,99,28.6,103.1"/>
	<path class="st10" d="M36.2,32.7c1.7-2.9,5.6-3.9,8.5-2.1c2.9,1.7,3.9,5.6,2.1,8.5c-1.7,2.9-5.6,3.9-8.5,2.1
		C35.5,39.4,34.5,35.6,36.2,32.7"/>
	<path class="st11" d="M36.2,32.7c1.7-2.9,5.6-3.9,8.5-2.1c2.9,1.7,3.9,5.6,2.1,8.5c-1.7,2.9-5.6,3.9-8.5,2.1
		C35.5,39.4,34.5,35.6,36.2,32.7z"/>
	<path class="st12" d="M27.7,55.7L43.2,63 M37,46.2l-9.3,9.4 M34.6,93.7l-10.2,23.7 M33.8,67.8l0.9,25.6 M37.9,41.2l-4,26.1"/>
	<path class="st13" d="M44.5,40.6c-1.1-0.1-2-0.8-1.9-1.6 M44.5,35.7c0.7,0,1.3,0.6,1.2,1.3 M45.9,34.7c0,0.6-0.6,1.1-1.3,1"/>
	<path class="st7" d="M40.4,37L40.4,37c-0.1-0.1-0.1-0.1-0.1-0.2l-0.1-0.1c0,0,0-0.1-0.1-0.1c0-0.1,0-0.1,0-0.2v-0.1
		c0,0,0-0.1,0-0.2V36c0-0.1,0-0.1,0.1-0.2l0.1-0.1l0.1-0.1l0.1-0.1l0,0c0,0,0.1,0.1,0.4,0.4c0.2,0.3,0.4,0.4,0.4,0.4
		s-0.1,0.1-0.4,0.4C40.5,36.9,40.4,37,40.4,37"/>
	<path class="st13" d="M40.4,37L40.4,37c-0.1-0.1-0.1-0.1-0.1-0.2l-0.1-0.1c0,0,0-0.1-0.1-0.1c0-0.1,0-0.1,0-0.2v-0.1
		c0,0,0-0.1,0-0.2V36c0-0.1,0-0.1,0.1-0.2l0.1-0.1l0.1-0.1l0.1-0.1l0,0c0,0,0.1,0.1,0.4,0.4c0.2,0.3,0.4,0.4,0.4,0.4
		s-0.1,0.1-0.4,0.4C40.5,36.9,40.4,37,40.4,37z"/>
	<path class="st8" d="M28.3,118.5l0.4-2"/>
	<path class="st13" d="M47.5,37.2c0.3,0.1,0.2,1.2-0.2,2.4"/>
	<line class="st14" x1="47.3" y1="39.4" x2="46.7" y2="39.3"/>
	<line class="st15" x1="13.2" y1="121.2" x2="43.9" y2="121.2"/>
	<text transform="matrix(1 0 0 1 77.7542 8.5701)" class="st17 st18 st19">Backward</text>
	<text transform="matrix(1 0 0 1 75.1053 20.8358)" class="st17 st18 st19">Perturbation</text>
	<text transform="matrix(1 0 0 1 8.1919 8.5703)" class="st17 st18 st19">Forward</text>
	<text transform="matrix(1 0 0 1 -2.441406e-04 20.8359)" class="st17 st18 st19">Perturbation</text>
	<path class="st8" d="M24.7,110.1l-2.3,7.6l7.8-22.5c0,0,0.5-3,3.7-3.3"/>
	<path d="M28.7,102.9c-1.5,4.1-3.3,7.3-3.9,7.1c-0.7-0.2,0.1-3.7,1.6-7.8c1.5-4.1,3.3-7.3,3.9-7.1C30.9,95.3,30.2,98.8,28.7,102.9"
		/>
	<path class="st20" d="M22.5,117.6l7.8-22.5c0,0,0.5-3,3.7-3.3"/>
	<line class="st20" x1="24.8" y1="110" x2="22.5" y2="117.6"/>
	<line class="st20" x1="32.4" y1="99.2" x2="31.3" y2="105.4"/>
	<line class="st20" x1="28.3" y1="118" x2="29.1" y2="115.2"/>
	<line class="st12" x1="20.4" y1="118" x2="33.1" y2="118.1"/>
</g>
</svg>
