<?xml version="1.0" encoding="utf-8"?>
<!-- Generator: Adobe Illustrator 24.0.0, SVG Export Plug-In . SVG Version: 6.00 Build 0)  -->
<svg version="1.1" id="Layer_1" xmlns="http://www.w3.org/2000/svg" xmlns:xlink="http://www.w3.org/1999/xlink" x="0px" y="0px"
	 viewBox="0 0 138.28 138.45" style="enable-background:new 0 0 138.28 138.45;" xml:space="preserve">
<style type="text/css">
	.st0{fill:none;stroke:#C0C1C3;stroke-width:0.7425;stroke-linecap:square;}
	.st1{fill:none;stroke:#B3B4B7;stroke-width:0.7425;}
	.st2{fill:none;stroke:#B3B4B7;stroke-width:0.7425;stroke-linecap:square;}
	.st3{fill:none;stroke:#BEBFC1;stroke-width:0.3713;}
	.st4{fill:#BEBFC1;}
	.st5{fill:#282526;}
	.st6{fill:none;stroke:#282526;stroke-width:0.7425;}
	.st7{fill:none;stroke:#A1A3A6;stroke-width:0.3713;}
	.st8{fill:#A1A3A6;}
	.st9{fill:#FFFFFF;}
	.st10{fill:none;stroke:#282526;stroke-width:0.7425;stroke-linecap:square;}
	.st11{fill:none;stroke:#282526;stroke-width:0.3713;}
	.st12{fill:none;stroke:#282526;stroke-width:0.3713;stroke-linecap:square;}
	.st13{fill:none;stroke:#4C4C4E;stroke-width:1.125;stroke-linecap:square;}
	.st14{fill:#4C4C4E;}
	.st15{fill:#231F20;}
	.st16{font-family:'HelveticaNeue';}
	.st17{font-size:10px;}
	.st18{fill:none;stroke:#000000;stroke-width:0.3713;}
</style>
<g>
	<path class="st0" d="M17.34,29.43l16.36,5.25 M25.32,18.87l-7.98,10.56"/>
	<path class="st1" d="M31.26,6.55c0,3.39-2.79,6.18-6.18,6.18c-3.39,0-6.18-2.79-6.18-6.18c0-3.39,2.79-6.18,6.18-6.18
		C28.47,0.37,31.26,3.16,31.26,6.55z"/>
	<path class="st2" d="M29.83,64.69l-5.55,25.19 M29.83,64.85l-4.28-24.72 M25.08,12.73l0.47,27.25"/>
	<path class="st3" d="M27.69,27.51H23.2 M25.45,25.27v4.49 M27.49,27.57c-0.03,1.12-0.97,2.01-2.09,1.98
		c-1.13-0.03-2.01-0.97-1.98-2.1c0.03-1.12,0.97-2.01,2.09-1.98C26.63,25.5,27.52,26.44,27.49,27.57z"/>
	<path class="st4" d="M25.86,27.92c0,0.4-0.01,0.81,0.01,1.21c0.43-0.06,1.25-0.71,1.12-1.2c-0.33-0.02-0.72,0.01-0.97-0.09"/>
	<path class="st4" d="M25.55,27.89c0,0.4,0,0.81,0.01,1.21c0.01,0.19,0.14,0.37,0.36,0.33c0.66-0.13,1.5-0.81,1.37-1.55
		c-0.02-0.13-0.14-0.25-0.27-0.25c-0.29-0.01-0.61,0.02-0.89-0.08c-0.37-0.13-0.59,0.45-0.21,0.57c0.34,0.11,0.69,0.1,1.04,0.11
		c-0.09-0.08-0.18-0.17-0.27-0.25c0.06,0.38-0.55,0.78-0.87,0.84c0.12,0.11,0.24,0.22,0.36,0.33c-0.02-0.4-0.01-0.81-0.01-1.21
		C26.16,27.56,25.55,27.5,25.55,27.89"/>
	<path class="st4" d="M25.04,25.88c-0.71-0.17-1.23,0.55-1.13,1.21c0.34,0.02,0.69,0.02,1.04,0c0.02-0.29,0.01-0.59,0.01-0.89"/>
	<path class="st4" d="M25.07,25.57c-0.93-0.16-1.55,0.71-1.46,1.57c0.01,0.13,0.14,0.25,0.27,0.25c0.37,0.01,0.75,0.01,1.12,0
		c0.13,0,0.25-0.15,0.25-0.27c0.01-0.29,0.01-0.59,0.01-0.88c0-0.39-0.61-0.45-0.61-0.06c0,0.29,0,0.59-0.01,0.88
		c0.08-0.09,0.17-0.18,0.25-0.27c-0.32,0.01-0.64,0.01-0.96,0c0.09,0.08,0.18,0.17,0.27,0.25c-0.05-0.49,0.28-0.94,0.8-0.85
		C25.4,26.25,25.45,25.64,25.07,25.57"/>
	<line class="st5" x1="17.48" y1="98.06" x2="36.25" y2="98.06"/>
	<g>
		<g>
			<line class="st6" x1="17.48" y1="98.06" x2="34.01" y2="98.06"/>
			<g>
				<path class="st5" d="M36.25,98.06c-1.05,0.39-2.36,1.06-3.17,1.77l0.64-1.77l-0.64-1.77C33.89,97,35.2,97.67,36.25,98.06z"/>
			</g>
		</g>
	</g>
	<path d="M28.74,81.54c0.23,3.47-0.12,6.25-0.79,6.16c-0.66-0.09-1.39-3.02-1.62-6.49c-0.23-3.47,0.13-6.25,0.79-6.16
		C27.78,75.14,28.51,78.07,28.74,81.54z"/>
	<line class="st7" x1="26.31" y1="70.16" x2="27.09" y2="76.39"/>
	<path class="st8" d="M23.9,75.03c-0.2,4.35-0.92,7.93-1.6,7.94c-0.68,0.01-1.07-3.56-0.87-7.91c0.2-4.35,0.92-7.93,1.6-7.94
		C23.7,67.11,24.1,70.68,23.9,75.03"/>
	<path class="st9" d="M9.98,5.66c0.78-3.3,4.14-5.37,7.44-4.59c3.3,0.78,5.37,4.14,4.58,7.44c-0.78,3.3-4.14,5.37-7.44,4.59
		C11.27,12.32,9.2,8.96,9.98,5.66"/>
	<path class="st6" d="M9.98,5.66c0.78-3.3,4.14-5.37,7.44-4.59c3.3,0.78,5.37,4.14,4.58,7.44c-0.78,3.3-4.14,5.37-7.44,4.59
		C11.27,12.32,9.2,8.96,9.98,5.66z"/>
	<path class="st10" d="M8.76,30.11l17.03,2.33 M14.79,18.32L8.76,30.11 M26.78,64.31l-2.64,25.64 M18.2,39.88l8.5,24.13
		 M14.09,13.26l4.05,26.14"/>
	<path class="st11" d="M20.26,10.73c-1.07,0.29-2.12-0.12-2.33-0.89 M18.79,6.03c0.68-0.18,1.39,0.23,1.57,0.91 M19.75,4.64
		c0.16,0.58-0.27,1.21-0.96,1.4"/>
	<path class="st5" d="M15.26,8.53c0,0-0.02-0.01-0.06-0.04c-0.04-0.02-0.08-0.05-0.12-0.09c-0.04-0.03-0.08-0.07-0.11-0.11
		c-0.03-0.04-0.07-0.08-0.09-0.12c-0.03-0.04-0.05-0.09-0.07-0.14c-0.02-0.05-0.04-0.09-0.06-0.14c-0.01-0.05-0.03-0.1-0.03-0.15
		c-0.01-0.05-0.01-0.1-0.01-0.15c0-0.05,0-0.1,0.01-0.15c0.01-0.05,0.02-0.1,0.03-0.15c0.01-0.05,0.03-0.1,0.05-0.15
		c0.02-0.05,0.04-0.08,0.04-0.1c0.01-0.02,0.01-0.03,0.01-0.03s0.16,0.09,0.48,0.28c0.33,0.19,0.48,0.28,0.48,0.28
		s-0.09,0.16-0.28,0.48C15.35,8.37,15.26,8.53,15.26,8.53"/>
	<path class="st11" d="M15.26,8.53c0,0-0.02-0.01-0.06-0.04c-0.04-0.02-0.08-0.05-0.12-0.09c-0.04-0.03-0.08-0.07-0.11-0.11
		c-0.03-0.04-0.07-0.08-0.09-0.12c-0.03-0.04-0.05-0.09-0.07-0.14c-0.02-0.05-0.04-0.09-0.06-0.14c-0.01-0.05-0.03-0.1-0.03-0.15
		c-0.01-0.05-0.01-0.1-0.01-0.15c0-0.05,0-0.1,0.01-0.15c0.01-0.05,0.02-0.1,0.03-0.15c0.01-0.05,0.03-0.1,0.05-0.15
		c0.02-0.05,0.04-0.08,0.04-0.1c0.01-0.02,0.01-0.03,0.01-0.03s0.16,0.09,0.48,0.28c0.33,0.19,0.48,0.28,0.48,0.28
		s-0.09,0.16-0.28,0.48C15.35,8.37,15.26,8.53,15.26,8.53z"/>
	<line class="st10" x1="20.32" y1="90.2" x2="33" y2="90.2"/>
	<path class="st7" d="M28.22,89.87l-0.26-2.06"/>
	<path class="st11" d="M22.11,6.59c0.3,0,0.55,1.08,0.55,2.38"/>
	<line class="st12" x1="22.59" y1="8.75" x2="21.96" y2="8.79"/>
	<line class="st13" x1="12.7" y1="93.45" x2="43.41" y2="93.45"/>
	<path class="st8" d="M18.19,29.28c-0.55-0.69-1.32-1.14-2.2-1.22"/>
	<path class="st11" d="M18.23,27.24h-4.49 M15.99,25v4.49 M18.03,27.3c-0.03,1.13-0.97,2.02-2.09,1.98
		c-1.13-0.03-2.02-0.97-1.98-2.1c0.03-1.12,0.97-2.01,2.09-1.98C17.17,25.23,18.06,26.17,18.03,27.3z"/>
	<path class="st5" d="M16.4,27.65c0,0.4-0.01,0.81,0.01,1.21c0.43-0.06,1.25-0.71,1.12-1.2c-0.33-0.02-0.72,0.01-0.97-0.1"/>
	<path class="st14" d="M16.09,27.62c0,0.4,0,0.81,0.01,1.21c0.01,0.19,0.14,0.37,0.36,0.33c0.66-0.13,1.5-0.81,1.37-1.55
		c-0.02-0.13-0.14-0.25-0.27-0.25c-0.29-0.01-0.61,0.02-0.89-0.08c-0.37-0.13-0.59,0.45-0.21,0.57c0.34,0.12,0.69,0.1,1.04,0.11
		c-0.09-0.09-0.18-0.17-0.27-0.25c0.07,0.38-0.55,0.78-0.87,0.84c0.12,0.11,0.24,0.22,0.36,0.33c-0.02-0.4-0.01-0.81-0.01-1.21
		C16.7,27.29,16.09,27.23,16.09,27.62"/>
	<path class="st5" d="M15.58,25.61c-0.71-0.16-1.23,0.55-1.13,1.21c0.34,0.02,0.69,0.02,1.04,0c0.02-0.29,0.01-0.59,0.01-0.88"/>
	<path class="st14" d="M15.61,25.31c-0.94-0.16-1.55,0.71-1.46,1.57c0.01,0.13,0.14,0.25,0.27,0.25c0.37,0.02,0.74,0.01,1.12,0
		c0.13,0,0.25-0.15,0.25-0.27c0.01-0.29,0.01-0.59,0.01-0.88c0-0.39-0.61-0.45-0.61-0.06c0,0.29,0,0.59-0.01,0.88
		c0.08-0.09,0.17-0.18,0.25-0.27c-0.32,0.01-0.64,0.01-0.95,0c0.09,0.09,0.18,0.17,0.27,0.25c-0.05-0.49,0.28-0.94,0.8-0.85
		C15.94,25.98,16,25.37,15.61,25.31"/>
	<text transform="matrix(1 0 0 1 9.0843 109.6417)"><tspan x="0" y="0" class="st15 st16 st17">Forward</tspan><tspan x="7.12" y="12" class="st15 st16 st17">Floor</tspan><tspan x="-9.08" y="24" class="st15 st16 st17">Perturbation</tspan></text>
	<text transform="matrix(1 0 0 1 32.8173 80.2418)" class="st15 st16 st17">TA</text>
	<text transform="matrix(1 0 0 1 0.6088 74.9088)" class="st15 st16 st17">MG</text>
	<text transform="matrix(1 0 0 1 120.6221 80.2418)" class="st15 st16 st17">TA</text>
	<text transform="matrix(1 0 0 1 88.4136 74.9088)" class="st15 st16 st17">MG</text>
	<path class="st7" d="M22.29,82.98l-0.18,6.98l0.92-22.83c0,0-0.42-3.01,2.49-4.29"/>
	<path d="M23.9,74.89c-0.2,4.35-0.92,7.93-1.6,7.94c-0.68,0.01-1.07-3.56-0.87-7.91c0.2-4.35,0.92-7.93,1.6-7.94
		C23.7,66.97,24.1,70.54,23.9,74.89"/>
	<path class="st18" d="M22.11,89.81l0.92-22.83c0,0-0.42-3.01,2.49-4.29"/>
	<line class="st18" x1="22.29" y1="82.84" x2="22.11" y2="89.81"/>
	<line class="st18" x1="26.31" y1="70.25" x2="27.09" y2="76.48"/>
	<line class="st18" x1="28.22" y1="89.96" x2="27.95" y2="86.32"/>
</g>
<g>
	<path class="st0" d="M100.43,29.43l16.36,5.25 M108.41,18.87l-7.98,10.56"/>
	<path class="st1" d="M114.35,6.55c0,3.39-2.79,6.18-6.18,6.18c-3.39,0-6.18-2.79-6.18-6.18c0-3.39,2.79-6.18,6.18-6.18
		C111.56,0.37,114.35,3.16,114.35,6.55z"/>
	<path class="st2" d="M112.92,64.69l-5.55,25.19 M112.92,64.85l-4.28-24.72 M108.17,12.73l0.47,27.25"/>
	<path class="st3" d="M110.79,27.51h-4.49 M108.54,25.27v4.49 M110.58,27.57c-0.03,1.12-0.97,2.01-2.09,1.98
		c-1.13-0.03-2.01-0.97-1.98-2.1c0.03-1.12,0.97-2.01,2.09-1.98C109.72,25.5,110.61,26.44,110.58,27.57z"/>
	<path class="st4" d="M108.95,27.92c0,0.4-0.01,0.81,0.01,1.21c0.43-0.06,1.25-0.71,1.12-1.2c-0.33-0.02-0.72,0.01-0.97-0.09"/>
	<path class="st4" d="M108.65,27.89c0,0.4,0,0.81,0.01,1.21c0.01,0.19,0.14,0.37,0.36,0.33c0.66-0.13,1.5-0.81,1.37-1.55
		c-0.02-0.13-0.14-0.25-0.27-0.25c-0.29-0.01-0.61,0.02-0.89-0.08c-0.37-0.13-0.59,0.45-0.21,0.57c0.34,0.11,0.69,0.1,1.04,0.11
		c-0.09-0.08-0.18-0.17-0.27-0.25c0.07,0.38-0.55,0.78-0.87,0.84c0.12,0.11,0.24,0.22,0.36,0.33c-0.02-0.4-0.01-0.81-0.01-1.21
		C109.26,27.56,108.65,27.5,108.65,27.89"/>
	<path class="st4" d="M108.13,25.88c-0.71-0.17-1.23,0.55-1.13,1.21c0.34,0.02,0.69,0.02,1.04,0c0.01-0.29,0.01-0.59,0.01-0.89"/>
	<path class="st4" d="M108.16,25.57c-0.93-0.16-1.54,0.71-1.46,1.57c0.01,0.13,0.14,0.25,0.27,0.25c0.37,0.01,0.75,0.01,1.12,0
		c0.13,0,0.25-0.15,0.25-0.27c0.01-0.29,0.01-0.59,0.01-0.88c0-0.39-0.61-0.45-0.61-0.06c0,0.29,0,0.59-0.01,0.88
		c0.08-0.09,0.17-0.18,0.25-0.27c-0.32,0.01-0.64,0.01-0.96,0c0.09,0.08,0.18,0.17,0.27,0.25c-0.05-0.49,0.28-0.94,0.8-0.85
		C108.49,26.25,108.55,25.64,108.16,25.57"/>
	<path class="st11" d="M120.68,27.24h-4.49 M118.43,25v4.49 M120.47,27.3c-0.03,1.13-0.97,2.02-2.09,1.98
		c-1.13-0.03-2.01-0.97-1.98-2.1c0.03-1.12,0.97-2.01,2.09-1.98C119.61,25.23,120.5,26.17,120.47,27.3z"/>
	<path class="st5" d="M118.84,27.65c0,0.4-0.01,0.81,0.01,1.21c0.43-0.06,1.25-0.71,1.12-1.2c-0.33-0.02-0.72,0.01-0.97-0.1"/>
	<path class="st14" d="M118.54,27.62c0,0.4,0,0.81,0.01,1.21c0.01,0.19,0.14,0.37,0.36,0.33c0.66-0.13,1.5-0.81,1.37-1.55
		c-0.02-0.13-0.14-0.25-0.27-0.25c-0.29-0.01-0.61,0.02-0.89-0.08c-0.37-0.13-0.59,0.45-0.21,0.57c0.34,0.12,0.69,0.1,1.04,0.11
		c-0.09-0.09-0.18-0.17-0.27-0.25c0.07,0.38-0.55,0.78-0.87,0.84c0.12,0.11,0.24,0.22,0.36,0.33c-0.02-0.4-0.01-0.81-0.01-1.21
		C119.15,27.29,118.54,27.23,118.54,27.62"/>
	<path class="st5" d="M118.02,25.61c-0.71-0.16-1.23,0.55-1.13,1.21c0.34,0.02,0.69,0.02,1.04,0c0.01-0.29,0.01-0.59,0.01-0.88"/>
	<path class="st14" d="M118.05,25.31c-0.94-0.16-1.54,0.71-1.46,1.57c0.01,0.13,0.14,0.25,0.27,0.25c0.37,0.02,0.74,0.01,1.12,0
		c0.13,0,0.25-0.15,0.25-0.27c0.01-0.29,0.01-0.59,0.01-0.88c0-0.39-0.61-0.45-0.61-0.06c0,0.29,0,0.59-0.01,0.88
		c0.08-0.09,0.17-0.18,0.25-0.27c-0.32,0.01-0.64,0.01-0.96,0c0.09,0.09,0.18,0.17,0.27,0.25c-0.05-0.49,0.28-0.94,0.8-0.85
		C118.39,25.98,118.44,25.37,118.05,25.31"/>
	<line class="st5" x1="100.58" y1="98.06" x2="119.35" y2="98.06"/>
	<g>
		<g>
			<line class="st6" x1="102.82" y1="98.06" x2="119.35" y2="98.06"/>
			<g>
				<path class="st5" d="M100.58,98.06c1.05,0.39,2.36,1.06,3.17,1.77l-0.64-1.77l0.64-1.77C102.94,97,101.63,97.67,100.58,98.06z"
					/>
			</g>
		</g>
	</g>
	<path d="M113.9,82.96c-0.82,3.38-2,5.93-2.6,5.64c-0.6-0.28-0.42-3.29,0.41-6.67c0.82-3.38,2-5.92,2.6-5.64
		C114.91,76.57,114.73,79.59,113.9,82.96z"/>
	<line class="st7" x1="115.01" y1="71.38" x2="113.88" y2="77.55"/>
	<path class="st8" d="M111.24,75.3c-1.5,4.08-3.27,7.29-3.92,7.09c-0.65-0.19,0.05-3.72,1.55-7.8c1.5-4.09,3.26-7.29,3.91-7.09
		C113.44,67.69,112.74,71.21,111.24,75.3"/>
	<path class="st9" d="M118.84,4.95c1.74-2.91,5.56-3.87,8.48-2.14c2.91,1.74,3.87,5.56,2.13,8.47c-1.74,2.91-5.56,3.87-8.47,2.14
		C118.06,11.69,117.1,7.86,118.84,4.95"/>
	<path class="st6" d="M118.84,4.95c1.74-2.91,5.56-3.87,8.48-2.14c2.91,1.74,3.87,5.56,2.13,8.47c-1.74,2.91-5.56,3.87-8.47,2.14
		C118.06,11.69,117.1,7.86,118.84,4.95z"/>
	<path class="st10" d="M110.31,27.9l15.54,7.34 M119.61,18.47l-9.29,9.43 M117.22,65.94L106.99,89.6 M116.38,40.06l0.86,25.57
		 M120.46,13.43l-4,26.15"/>
	<path class="st11" d="M127.12,12.88c-1.11-0.05-1.99-0.75-1.95-1.55 M127.13,7.96c0.71,0.03,1.26,0.63,1.23,1.34 M128.46,6.91
		c-0.03,0.6-0.63,1.07-1.33,1.04"/>
	<path class="st5" d="M123,9.27c0,0-0.01-0.02-0.04-0.05c-0.03-0.03-0.06-0.07-0.08-0.12c-0.03-0.04-0.05-0.09-0.07-0.14
		c-0.02-0.05-0.04-0.1-0.05-0.15c-0.01-0.05-0.03-0.1-0.03-0.15c-0.01-0.05-0.01-0.1-0.01-0.15c0-0.05,0.01-0.1,0.01-0.15
		c0.01-0.05,0.02-0.1,0.04-0.15c0.01-0.05,0.03-0.1,0.05-0.15c0.02-0.05,0.05-0.09,0.07-0.14c0.03-0.04,0.06-0.08,0.09-0.12
		c0.03-0.04,0.06-0.07,0.07-0.08c0.01-0.01,0.02-0.02,0.02-0.02s0.12,0.13,0.38,0.41c0.25,0.28,0.38,0.41,0.38,0.41
		s-0.13,0.12-0.41,0.38C123.14,9.15,123,9.27,123,9.27"/>
	<path class="st11" d="M123,9.27c0,0-0.01-0.02-0.04-0.05c-0.03-0.03-0.06-0.07-0.08-0.12c-0.03-0.04-0.05-0.09-0.07-0.14
		c-0.02-0.05-0.04-0.1-0.05-0.15c-0.01-0.05-0.03-0.1-0.03-0.15c-0.01-0.05-0.01-0.1-0.01-0.15c0-0.05,0.01-0.1,0.01-0.15
		c0.01-0.05,0.02-0.1,0.04-0.15c0.01-0.05,0.03-0.1,0.05-0.15c0.02-0.05,0.05-0.09,0.07-0.14c0.03-0.04,0.06-0.08,0.09-0.12
		c0.03-0.04,0.06-0.07,0.07-0.08c0.01-0.01,0.02-0.02,0.02-0.02s0.12,0.13,0.38,0.41c0.25,0.28,0.38,0.41,0.38,0.41
		s-0.13,0.12-0.41,0.38C123.14,9.15,123,9.27,123,9.27z"/>
	<path class="st7" d="M110.9,90.74l0.37-2.04"/>
	<path class="st11" d="M130.12,9.49c0.29,0.09,0.2,1.19-0.19,2.44"/>
	<line class="st12" x1="129.93" y1="11.69" x2="129.32" y2="11.53"/>
	<line class="st13" x1="95.79" y1="93.45" x2="126.5" y2="93.45"/>
	<text transform="matrix(1 0 0 1 88.1934 109.6417)"><tspan x="0" y="0" class="st15 st16 st17">Backward</tspan><tspan x="12.22" y="12" class="st15 st16 st17">Foor</tspan><tspan x="-5.1" y="24" class="st15 st16 st17">Perturbation</tspan></text>
	<path class="st7" d="M107.33,82.39l-2.29,7.56l7.76-22.46c0,0,0.5-2.99,3.67-3.34"/>
	<path d="M111.29,75.16c-1.5,4.08-3.27,7.29-3.92,7.09c-0.65-0.19,0.05-3.72,1.55-7.8c1.5-4.09,3.26-7.29,3.91-7.09
		C113.48,67.55,112.79,71.07,111.29,75.16"/>
	<path class="st18" d="M105.07,89.82l7.76-22.46c0,0,0.5-2.99,3.67-3.34"/>
	<line class="st18" x1="107.37" y1="82.25" x2="105.07" y2="89.82"/>
	<line class="st18" x1="114.98" y1="71.46" x2="113.86" y2="77.64"/>
	<line class="st18" x1="110.88" y1="90.23" x2="111.65" y2="87.4"/>
	<line class="st10" x1="102.98" y1="90.25" x2="115.66" y2="90.33"/>
</g>
</svg>
