<?xml version="1.0" encoding="utf-8"?>
<!-- Generator: Adobe Illustrator 24.0.0, SVG Export Plug-In . SVG Version: 6.00 Build 0)  -->
<svg version="1.1" id="Layer_1" xmlns="http://www.w3.org/2000/svg" xmlns:xlink="http://www.w3.org/1999/xlink" x="0px" y="0px"
	 viewBox="0 0 138.3 138.4" style="enable-background:new 0 0 138.3 138.4;" xml:space="preserve">
<style type="text/css">
	.st0{fill:none;stroke:#C0C1C3;stroke-width:0.7425;stroke-linecap:square;}
	.st1{fill:none;stroke:#B3B4B7;stroke-width:0.7425;}
	.st2{fill:none;stroke:#B3B4B7;stroke-width:0.7425;stroke-linecap:square;}
	.st3{fill:none;stroke:#BEBFC1;stroke-width:0.3713;}
	.st4{fill:#BEBFC1;}
	.st5{fill:none;}
	.st6{fill:none;stroke:#282526;stroke-width:1.2;}
	.st7{fill:#282526;}
	.st8{fill:none;stroke:#A1A3A6;stroke-width:0.3713;}
	.st9{fill:#A1A3A6;}
	.st10{fill:#FFFFFF;}
	.st11{fill:none;stroke:#282526;stroke-width:0.7425;}
	.st12{fill:none;stroke:#282526;stroke-width:0.7425;stroke-linecap:square;}
	.st13{fill:none;stroke:#282526;stroke-width:0.3713;}
	.st14{fill:none;stroke:#282526;stroke-width:0.3713;stroke-linecap:square;}
	.st15{fill:none;stroke:#4C4C4E;stroke-width:1.125;stroke-linecap:square;}
	.st16{fill:#4C4C4E;}
	.st17{fill:#231F20;}
	.st18{font-family:'HelveticaNeue';}
	.st19{font-size:10px;}
	.st20{fill:none;stroke:#000000;stroke-width:0.3713;}
</style>
<g>
	<path class="st0" d="M17.3,60.6l16.4,5.3 M25.3,50l-8,10.6"/>
	<path class="st1" d="M31.3,37.7c0,3.4-2.8,6.2-6.2,6.2s-6.2-2.8-6.2-6.2s2.8-6.2,6.2-6.2C28.5,31.5,31.3,34.3,31.3,37.7z"/>
	<path class="st2" d="M29.8,95.8L24.3,121 M29.8,96l-4.3-24.7 M25.1,43.9l0.5,27.2"/>
	<path class="st3" d="M27.7,58.7h-4.5 M25.5,56.4v4.5 M27.5,58.7c0,1.1-1,2-2.1,2c-1.1,0-2-1-2-2.1c0-1.1,1-2,2.1-2
		C26.6,56.7,27.5,57.6,27.5,58.7z"/>
	<path class="st4" d="M25.9,59.1c0,0.4,0,0.8,0,1.2c0.4-0.1,1.2-0.7,1.1-1.2c-0.3,0-0.7,0-1-0.1"/>
	<path class="st4" d="M25.5,59c0,0.4,0,0.8,0,1.2c0,0.2,0.1,0.4,0.4,0.3c0.7-0.1,1.5-0.8,1.4-1.5c0-0.1-0.1-0.2-0.3-0.2
		c-0.3,0-0.6,0-0.9-0.1c-0.4-0.1-0.6,0.5-0.2,0.6c0.3,0.1,0.7,0.1,1,0.1c-0.1-0.1-0.2-0.2-0.3-0.2c0.1,0.4-0.5,0.8-0.9,0.8
		c0.1,0.1,0.2,0.2,0.4,0.3c0-0.4,0-0.8,0-1.2C26.2,58.7,25.5,58.7,25.5,59"/>
	<path class="st4" d="M25,57c-0.7-0.2-1.2,0.5-1.1,1.2c0.3,0,0.7,0,1,0c0-0.3,0-0.6,0-0.9"/>
	<path class="st4" d="M25.1,56.7c-0.9-0.2-1.5,0.7-1.5,1.6c0,0.1,0.1,0.2,0.3,0.2c0.4,0,0.8,0,1.1,0c0.1,0,0.2-0.1,0.2-0.3
		c0-0.3,0-0.6,0-0.9c0-0.4-0.6-0.5-0.6-0.1c0,0.3,0,0.6,0,0.9c0.1-0.1,0.2-0.2,0.2-0.3c-0.3,0-0.6,0-1,0c0.1,0.1,0.2,0.2,0.3,0.2
		c0-0.5,0.3-0.9,0.8-0.8C25.4,57.4,25.5,56.8,25.1,56.7"/>
	<line class="st5" x1="17.5" y1="129.2" x2="36.2" y2="129.2"/>
	<g>
		<g>
			<line class="st6" x1="17.5" y1="129.2" x2="34" y2="129.2"/>
			<g>
				<path class="st7" d="M36.2,129.2c-1,0.4-2.4,1.1-3.2,1.8l0.6-1.8l-0.6-1.8C33.9,128.2,35.2,128.8,36.2,129.2z"/>
			</g>
		</g>
	</g>
	<path d="M28.7,112.7c0.2,3.5-0.1,6.2-0.8,6.2c-0.7-0.1-1.4-3-1.6-6.5c-0.2-3.5,0.1-6.2,0.8-6.2S28.5,109.2,28.7,112.7z"/>
	<line class="st8" x1="26.3" y1="101.3" x2="27.1" y2="107.5"/>
	<path class="st9" d="M23.9,106.2c-0.2,4.4-0.9,7.9-1.6,7.9c-0.7,0-1.1-3.6-0.9-7.9c0.2-4.3,0.9-7.9,1.6-7.9
		C23.7,98.3,24.1,101.8,23.9,106.2"/>
	<path class="st10" d="M10,36.8c0.8-3.3,4.1-5.4,7.4-4.6s5.4,4.1,4.6,7.4c-0.8,3.3-4.1,5.4-7.4,4.6C11.3,43.5,9.2,40.1,10,36.8"/>
	<path class="st11" d="M10,36.8c0.8-3.3,4.1-5.4,7.4-4.6s5.4,4.1,4.6,7.4c-0.8,3.3-4.1,5.4-7.4,4.6C11.3,43.5,9.2,40.1,10,36.8z"/>
	<path class="st12" d="M8.8,61.3l17,2.3 M14.8,49.5l-6,11.8 M26.8,95.5l-2.6,25.6 M18.2,71l8.5,24.1 M14.1,44.4l4,26.1"/>
	<path class="st13" d="M20.3,41.9c-1.1,0.3-2.1-0.1-2.3-0.9 M18.8,37.2c0.7-0.2,1.4,0.2,1.6,0.9 M19.8,35.8c0.2,0.6-0.3,1.2-1,1.4"
		/>
	<path class="st7" d="M15.3,39.7C15.3,39.7,15.2,39.7,15.3,39.7c-0.1-0.1-0.1-0.1-0.2-0.1c0,0-0.1-0.1-0.1-0.1c0,0-0.1-0.1-0.1-0.1
		c0,0-0.1-0.1-0.1-0.1c0,0,0-0.1-0.1-0.1c0,0,0-0.1,0-0.1c0-0.1,0-0.1,0-0.2s0-0.1,0-0.2c0,0,0-0.1,0-0.1c0-0.1,0-0.1,0.1-0.2
		s0-0.1,0-0.1c0,0,0,0,0,0s0.2,0.1,0.5,0.3c0.3,0.2,0.5,0.3,0.5,0.3s-0.1,0.2-0.3,0.5C15.4,39.5,15.3,39.7,15.3,39.7"/>
	<path class="st13" d="M15.3,39.7C15.3,39.7,15.2,39.7,15.3,39.7c-0.1-0.1-0.1-0.1-0.2-0.1c0,0-0.1-0.1-0.1-0.1c0,0-0.1-0.1-0.1-0.1
		c0,0-0.1-0.1-0.1-0.1c0,0,0-0.1-0.1-0.1c0,0,0-0.1,0-0.1c0-0.1,0-0.1,0-0.2s0-0.1,0-0.2c0,0,0-0.1,0-0.1c0-0.1,0-0.1,0.1-0.2
		s0-0.1,0-0.1c0,0,0,0,0,0s0.2,0.1,0.5,0.3c0.3,0.2,0.5,0.3,0.5,0.3s-0.1,0.2-0.3,0.5C15.4,39.5,15.3,39.7,15.3,39.7z"/>
	<line class="st12" x1="20.3" y1="121.4" x2="33" y2="121.4"/>
	<path class="st8" d="M28.2,121L28,119"/>
	<path class="st13" d="M22.1,37.7c0.3,0,0.5,1.1,0.5,2.4"/>
	<line class="st14" x1="22.6" y1="39.9" x2="22" y2="39.9"/>
	<line class="st15" x1="12.7" y1="124.6" x2="43.4" y2="124.6"/>
	<path class="st9" d="M18.2,60.4c-0.5-0.7-1.3-1.1-2.2-1.2"/>
	<path class="st13" d="M18.2,58.4h-4.5 M16,56.2v4.5 M18,58.5c0,1.1-1,2-2.1,2c-1.1,0-2-1-2-2.1c0-1.1,1-2,2.1-2
		C17.2,56.4,18.1,57.3,18,58.5z"/>
	<path class="st7" d="M16.4,58.8c0,0.4,0,0.8,0,1.2c0.4-0.1,1.2-0.7,1.1-1.2c-0.3,0-0.7,0-1-0.1"/>
	<path class="st16" d="M16.1,58.8c0,0.4,0,0.8,0,1.2c0,0.2,0.1,0.4,0.4,0.3c0.7-0.1,1.5-0.8,1.4-1.5c0-0.1-0.1-0.2-0.3-0.2
		c-0.3,0-0.6,0-0.9-0.1c-0.4-0.1-0.6,0.5-0.2,0.6c0.3,0.1,0.7,0.1,1,0.1c-0.1-0.1-0.2-0.2-0.3-0.2c0.1,0.4-0.5,0.8-0.9,0.8
		c0.1,0.1,0.2,0.2,0.4,0.3c0-0.4,0-0.8,0-1.2C16.7,58.4,16.1,58.4,16.1,58.8"/>
	<path class="st7" d="M15.6,56.8c-0.7-0.2-1.2,0.5-1.1,1.2c0.3,0,0.7,0,1,0c0-0.3,0-0.6,0-0.9"/>
	<path class="st16" d="M15.6,56.5c-0.9-0.2-1.6,0.7-1.5,1.6c0,0.1,0.1,0.2,0.3,0.2c0.4,0,0.7,0,1.1,0c0.1,0,0.2-0.2,0.2-0.3
		c0-0.3,0-0.6,0-0.9c0-0.4-0.6-0.5-0.6-0.1c0,0.3,0,0.6,0,0.9c0.1-0.1,0.2-0.2,0.2-0.3c-0.3,0-0.6,0-0.9,0c0.1,0.1,0.2,0.2,0.3,0.2
		c-0.1-0.5,0.3-0.9,0.8-0.9C15.9,57.1,16,56.5,15.6,56.5"/>
	<text transform="matrix(1 0 0 1 32.8173 111.3938)" class="st17 st18 st19">TA</text>
	<text transform="matrix(1 0 0 1 0.6088 106.0608)" class="st17 st18 st19">MG</text>
	<text transform="matrix(1 0 0 1 120.6221 111.3938)" class="st17 st18 st19">TA</text>
	<text transform="matrix(1 0 0 1 88.4136 106.0608)" class="st17 st18 st19">MG</text>
	<path class="st8" d="M22.3,114.1l-0.2,7L23,98.3c0,0-0.4-3,2.5-4.3"/>
	<path d="M23.9,106c-0.2,4.4-0.9,7.9-1.6,7.9c-0.7,0-1.1-3.6-0.9-7.9c0.2-4.3,0.9-7.9,1.6-7.9C23.7,98.1,24.1,101.7,23.9,106"/>
	<path class="st20" d="M22.1,121L23,98.1c0,0-0.4-3,2.5-4.3"/>
	<line class="st20" x1="22.3" y1="114" x2="22.1" y2="121"/>
	<line class="st20" x1="26.3" y1="101.4" x2="27.1" y2="107.6"/>
	<line class="st20" x1="28.2" y1="121.1" x2="28" y2="117.5"/>
</g>
<g>
	<path class="st0" d="M100.4,60.6l16.4,5.3 M108.4,50l-8,10.6"/>
	<path class="st1" d="M114.3,37.7c0,3.4-2.8,6.2-6.2,6.2s-6.2-2.8-6.2-6.2s2.8-6.2,6.2-6.2C111.6,31.5,114.3,34.3,114.3,37.7z"/>
	<path class="st2" d="M112.9,95.8l-5.6,25.2 M112.9,96l-4.3-24.7 M108.2,43.9l0.5,27.2"/>
	<path class="st3" d="M110.8,58.7h-4.5 M108.5,56.4v4.5 M110.6,58.7c0,1.1-1,2-2.1,2c-1.1,0-2-1-2-2.1c0-1.1,1-2,2.1-2
		C109.7,56.7,110.6,57.6,110.6,58.7z"/>
	<path class="st4" d="M108.9,59.1c0,0.4,0,0.8,0,1.2c0.4-0.1,1.2-0.7,1.1-1.2c-0.3,0-0.7,0-1-0.1"/>
	<path class="st4" d="M108.7,59c0,0.4,0,0.8,0,1.2c0,0.2,0.1,0.4,0.4,0.3c0.7-0.1,1.5-0.8,1.4-1.5c0-0.1-0.1-0.2-0.3-0.2
		c-0.3,0-0.6,0-0.9-0.1c-0.4-0.1-0.6,0.5-0.2,0.6c0.3,0.1,0.7,0.1,1,0.1c-0.1-0.1-0.2-0.2-0.3-0.2c0.1,0.4-0.6,0.8-0.9,0.8
		c0.1,0.1,0.2,0.2,0.4,0.3c0-0.4,0-0.8,0-1.2C109.3,58.7,108.7,58.7,108.7,59"/>
	<path class="st4" d="M108.1,57c-0.7-0.2-1.2,0.5-1.1,1.2c0.3,0,0.7,0,1,0c0-0.3,0-0.6,0-0.9"/>
	<path class="st4" d="M108.2,56.7c-0.9-0.2-1.5,0.7-1.5,1.6c0,0.1,0.1,0.2,0.3,0.2c0.4,0,0.8,0,1.1,0c0.1,0,0.2-0.1,0.2-0.3
		c0-0.3,0-0.6,0-0.9c0-0.4-0.6-0.5-0.6-0.1c0,0.3,0,0.6,0,0.9c0.1-0.1,0.2-0.2,0.2-0.3c-0.3,0-0.6,0-1,0c0.1,0.1,0.2,0.2,0.3,0.2
		c-0.1-0.5,0.3-0.9,0.8-0.8C108.5,57.4,108.6,56.8,108.2,56.7"/>
	<path class="st13" d="M120.7,58.4h-4.5 M118.4,56.2v4.5 M120.5,58.5c0,1.1-1,2-2.1,2c-1.1,0-2-1-2-2.1c0-1.1,1-2,2.1-2
		C119.6,56.4,120.5,57.3,120.5,58.5z"/>
	<path class="st7" d="M118.8,58.8c0,0.4,0,0.8,0,1.2c0.4-0.1,1.2-0.7,1.1-1.2c-0.3,0-0.7,0-1-0.1"/>
	<path class="st16" d="M118.5,58.8c0,0.4,0,0.8,0,1.2c0,0.2,0.1,0.4,0.4,0.3c0.7-0.1,1.5-0.8,1.4-1.5c0-0.1-0.1-0.2-0.3-0.2
		c-0.3,0-0.6,0-0.9-0.1c-0.4-0.1-0.6,0.5-0.2,0.6c0.3,0.1,0.7,0.1,1,0.1c-0.1-0.1-0.2-0.2-0.3-0.2c0.1,0.4-0.6,0.8-0.9,0.8
		c0.1,0.1,0.2,0.2,0.4,0.3c0-0.4,0-0.8,0-1.2C119.2,58.4,118.5,58.4,118.5,58.8"/>
	<path class="st7" d="M118,56.8c-0.7-0.2-1.2,0.5-1.1,1.2c0.3,0,0.7,0,1,0c0-0.3,0-0.6,0-0.9"/>
	<path class="st16" d="M118.1,56.5c-0.9-0.2-1.5,0.7-1.5,1.6c0,0.1,0.1,0.2,0.3,0.2c0.4,0,0.7,0,1.1,0c0.1,0,0.2-0.2,0.2-0.3
		c0-0.3,0-0.6,0-0.9c0-0.4-0.6-0.5-0.6-0.1c0,0.3,0,0.6,0,0.9c0.1-0.1,0.2-0.2,0.2-0.3c-0.3,0-0.6,0-1,0c0.1,0.1,0.2,0.2,0.3,0.2
		c-0.1-0.5,0.3-0.9,0.8-0.9C118.4,57.1,118.4,56.5,118.1,56.5"/>
	<line class="st5" x1="100.6" y1="129.2" x2="119.3" y2="129.2"/>
	<g>
		<g>
			<line class="st6" x1="102.8" y1="129.2" x2="119.3" y2="129.2"/>
			<g>
				<path class="st7" d="M100.6,129.2c1.1,0.4,2.4,1.1,3.2,1.8l-0.6-1.8l0.6-1.8C102.9,128.2,101.6,128.8,100.6,129.2z"/>
			</g>
		</g>
	</g>
	<path d="M113.9,114.1c-0.8,3.4-2,5.9-2.6,5.6c-0.6-0.3-0.4-3.3,0.4-6.7c0.8-3.4,2-5.9,2.6-5.6S114.7,110.7,113.9,114.1z"/>
	<line class="st8" x1="115" y1="102.5" x2="113.9" y2="108.7"/>
	<path class="st9" d="M111.2,106.5c-1.5,4.1-3.3,7.3-3.9,7.1c-0.7-0.2,0.1-3.7,1.6-7.8c1.5-4.1,3.3-7.3,3.9-7.1
		C113.4,98.8,112.7,102.4,111.2,106.5"/>
	<path class="st10" d="M118.8,36.1c1.7-2.9,5.6-3.9,8.5-2.1c2.9,1.7,3.9,5.6,2.1,8.5c-1.7,2.9-5.6,3.9-8.5,2.1
		C118.1,42.8,117.1,39,118.8,36.1"/>
	<path class="st11" d="M118.8,36.1c1.7-2.9,5.6-3.9,8.5-2.1c2.9,1.7,3.9,5.6,2.1,8.5c-1.7,2.9-5.6,3.9-8.5,2.1
		C118.1,42.8,117.1,39,118.8,36.1z"/>
	<path class="st12" d="M110.3,59.1l15.5,7.3 M119.6,49.6l-9.3,9.4 M117.2,97.1L107,120.8 M116.4,71.2l0.9,25.6 M120.5,44.6l-4,26.1"
		/>
	<path class="st13" d="M127.1,44c-1.1-0.1-2-0.8-1.9-1.6 M127.1,39.1c0.7,0,1.3,0.6,1.2,1.3 M128.5,38.1c0,0.6-0.6,1.1-1.3,1"/>
	<path class="st7" d="M123,40.4C123,40.4,123,40.4,123,40.4c-0.1-0.1-0.1-0.1-0.1-0.2c0,0-0.1-0.1-0.1-0.1s0-0.1-0.1-0.1
		c0-0.1,0-0.1,0-0.2c0,0,0-0.1,0-0.1s0-0.1,0-0.2c0,0,0-0.1,0-0.1c0-0.1,0-0.1,0.1-0.2c0,0,0.1-0.1,0.1-0.1c0,0,0.1-0.1,0.1-0.1
		s0.1-0.1,0.1-0.1c0,0,0,0,0,0s0.1,0.1,0.4,0.4c0.2,0.3,0.4,0.4,0.4,0.4s-0.1,0.1-0.4,0.4C123.1,40.3,123,40.4,123,40.4"/>
	<path class="st13" d="M123,40.4C123,40.4,123,40.4,123,40.4c-0.1-0.1-0.1-0.1-0.1-0.2c0,0-0.1-0.1-0.1-0.1s0-0.1-0.1-0.1
		c0-0.1,0-0.1,0-0.2c0,0,0-0.1,0-0.1s0-0.1,0-0.2c0,0,0-0.1,0-0.1c0-0.1,0-0.1,0.1-0.2c0,0,0.1-0.1,0.1-0.1c0,0,0.1-0.1,0.1-0.1
		s0.1-0.1,0.1-0.1c0,0,0,0,0,0s0.1,0.1,0.4,0.4c0.2,0.3,0.4,0.4,0.4,0.4s-0.1,0.1-0.4,0.4C123.1,40.3,123,40.4,123,40.4z"/>
	<path class="st8" d="M110.9,121.9l0.4-2"/>
	<path class="st13" d="M130.1,40.6c0.3,0.1,0.2,1.2-0.2,2.4"/>
	<line class="st14" x1="129.9" y1="42.8" x2="129.3" y2="42.7"/>
	<line class="st15" x1="95.8" y1="124.6" x2="126.5" y2="124.6"/>
	<text transform="matrix(1 0 0 1 2.6487 11.9378)" class="st17 st18 st19">Backward</text>
	<text transform="matrix(1 0 0 1 -2.136230e-04 24.2035)" class="st17 st18 st19">Perturbation</text>
	<text transform="matrix(1 0 0 1 90.7857 11.9379)" class="st17 st18 st19">Forward</text>
	<text transform="matrix(1 0 0 1 82.5936 24.2036)" class="st17 st18 st19">Perturbation</text>
	<path class="st8" d="M107.3,113.5l-2.3,7.6l7.8-22.5c0,0,0.5-3,3.7-3.3"/>
	<path d="M111.3,106.3c-1.5,4.1-3.3,7.3-3.9,7.1c-0.7-0.2,0.1-3.7,1.6-7.8c1.5-4.1,3.3-7.3,3.9-7.1
		C113.5,98.7,112.8,102.2,111.3,106.3"/>
	<path class="st20" d="M105.1,121l7.8-22.5c0,0,0.5-3,3.7-3.3"/>
	<line class="st20" x1="107.4" y1="113.4" x2="105.1" y2="121"/>
	<line class="st20" x1="115" y1="102.6" x2="113.9" y2="108.8"/>
	<line class="st20" x1="110.9" y1="121.4" x2="111.7" y2="118.6"/>
	<line class="st12" x1="103" y1="121.4" x2="115.7" y2="121.5"/>
</g>
</svg>
